<?xml version="1.0" encoding="utf-8"?>
<!-- Generator: Adobe Illustrator 23.0.1, SVG Export Plug-In . SVG Version: 6.00 Build 0)  -->
<svg version="1.2" baseProfile="tiny" id="Группа_1_1_"
	 xmlns="http://www.w3.org/2000/svg" xmlns:xlink="http://www.w3.org/1999/xlink" x="0px" y="0px" viewBox="0 0 480 480"
	 xml:space="preserve">
<g id="Слой_2_xA0_Изображение_1_">
	<g>
		<path d="M135.5,173.3c0.8-1.9,1.5-3.8,2.5-5.5c1.2-1.9,2.5-3.7,4.2-5.2c1.3-1.2,3.1-1.9,5.1-2c5.1-0.1,9,2.4,12.6,5.5
			c2.5,2.2,2.8,4.4,1.6,7.5c-0.4,1-1.2,2.2,0.2,3.2c0.3,0.2,0.1,0.9,0.2,1.4c0.2,0.8,0.2,1.8,0.7,2.3c2.3,2.4,3.2,5.3,3.5,8.5
			c0.2,3,0,6.1,0,9.2c-0.1,0-0.3,0.1-0.4,0.1c-0.3-0.3-0.7-0.5-1-0.9c-3-3.4-4.3-7.4-4.7-11.8c-0.1-1.4,0-2.8-0.1-4.2
			c-0.1-1.2-0.4-2.3-0.6-3.5c-3.2,2.6-6.2,5-9.3,7.4c0.5,0.8,1.2,1.8,1.8,2.8c1.5,2.8,1.7,5.6,0.1,8.5c-0.7,1.3-1.3,2.7-1.7,4.1
			c-0.4,1.3-0.3,2.7,0.6,3.9c3.6,4.6,5.5,10,6.3,15.7c0.4,2.8,0.5,5.7,0.8,8.6c0.1,1.2,0.4,2.4,0.7,3.5c0.4,1.5,0.2,2.1-1.1,2.8
			c-2.2,1.3-4.4,2.5-6.7,3.8c-1,0.6-1.5,1.6-1.3,2.8c0.1,0.7,0,1.4,0,2.1c0,0.4,0,0.8,0.2,1.1c2.5,4.1,2.7,8.6,2.6,13.2
			c0,1.7-0.1,3.5-0.3,5.1c-0.3,2,0.1,3.7,1.1,5.3c1,1.7,1.8,3.6,2.8,5.3c0.2,0.3,0.7,0.5,1,0.7c1.5,0.5,3.1,1,4.5,1.6
			c0.6,0.3,1.3,1,1.4,1.6c0,0.5-0.8,1.3-1.3,1.5c-2.8,0.9-5.7,1.9-8.6,2.4c-8.3,1.5-16.7,2.1-25.1,2.4c-7.2,0.3-14.4,0.6-21.6,0.4
			c-12-0.3-24-0.7-35.8-2.8c-2.6-0.5-5.2-1.2-7.8-2c-1-0.3-2.3-0.7-2.3-2c0-1.3,1.3-1.7,2.3-2c3.9-1,7.7-2.1,11.7-2.6
			c18.7-2.5,37.5-2.6,56.3-1.7c1.1,0.1,1.8-0.2,2.6-1c1.7-1.6,3.6-3.1,5.4-4.5c0.5-0.4,0.7-0.8,0.6-1.5c-1.5-8.2-3-16.4-4.5-24.6
			c-0.2-0.9-0.5-1.1-1.3-1.1c-3.5,0.2-6.9,0-10.1-1.4c-0.6-0.3-1.2-0.6-1.8-0.9c-2-1.2-2.9-2.8-2.8-5.3c0.6-12.5,2.4-24.7,7.2-36.3
			c1.7-4.1,3.9-7.9,6-11.8c0.4-0.7,0.2-1-0.2-1.5c-3-4.1-6-8.1-8.9-12.2c-2-2.9-3.1-6.2-3.1-9.8c0-1.8-0.6-3.3-2.3-4.3
			c-1.6-0.9-1.6-2.4-0.3-3.7c0.5-0.5,1.2-0.9,1.8-1.4c0.3-0.2,0.6-0.8,0.4-1c-0.2-0.3-0.6-0.5-1-0.6c-0.3-0.1-0.7,0.1-0.9,0
			c-0.4-0.2-0.8-0.5-1.1-0.8c0.4-0.4,0.7-1,1.1-1c1.6-0.2,3.2,0.1,4.3,1.4c0.9,1.1,1.6,2.4,2,3.7c0.5,1.7,0.6,3.5,1.1,5.1
			c0.3,1.1,0.9,2.1,1.6,3.1c2.6,3.9,5.3,7.8,8,11.7C134.7,172.4,135.1,172.8,135.5,173.3z"/>
		<path d="M172.9,249.4c1.5-0.2,3-0.6,4.5-0.6c8.9-0.5,17.8-1.1,26.7-1.4c41.4-1.2,82.9-1.5,124.3-1.1c20,0.1,39.9,0.5,59.9,0.9
			c11,0.2,21.9,0.9,32.8,1.4c1.9,0.1,3.8,0.4,5.7,0.7c0.4,0.1,0.8,0.2,1.2,0.3c0,0.1,0,0.3,0,0.4c-1.5,0.2-3,0.6-4.5,0.6
			c-8.9,0.5-17.8,1.1-26.7,1.4c-41.4,1.2-82.9,1.5-124.3,1.1c-20-0.1-39.9-0.5-59.9-0.9c-11-0.2-21.9-0.9-32.8-1.4
			c-1.9-0.1-3.8-0.4-5.7-0.7c-0.4-0.1-0.8-0.2-1.2-0.3C172.9,249.7,172.9,249.6,172.9,249.4z"/>
		<path d="M87.9,151.8c0-4.5,0-9,0-13.6c-4.4-0.6-8.6-1.2-13.1-1.8c0.5-0.3,0.8-0.5,1-0.6c3.5-1.5,7.1-3,10.6-4.4
			c1-0.4,1.3-0.9,1.2-2c-0.2-3.8-0.4-7.7-0.5-11.5c0-0.4,0-0.7,0.2-1.2c1.2,2.1,2.4,4.1,3.6,6.2c0.7,1.3,1.5,2.5,2.2,3.9
			c0.4,0.8,0.9,1,1.8,0.9c3.5-0.4,7-0.7,10.5-1c0.3,0,0.5,0,1.1-0.1c-1.3,1.5-2.3,2.9-3.4,4.2c-1.1,1.4-2.3,2.8-3.5,4.1
			c-0.6,0.7-0.5,1.1,0,1.7c3.8,4.4,7.5,8.9,11.3,13.4c0.2,0.2,0.4,0.5,0.4,0.9c-5.4-3.1-10.8-6.2-16.4-9.4
			c-2.3,3.5-4.6,6.9-6.8,10.4C88.1,151.8,88,151.8,87.9,151.8z"/>
		<path d="M54.1,162.7c2.3-0.4,4.6-0.7,6.8-1.1c2.1-0.4,1.8,0,2.1-2.2c0.4-3.4,0.8-6.8,1.5-10.3c0.1,0.3,0.3,0.7,0.4,1
			c1.2,3.3,2.4,6.6,3.6,9.9c0.3,0.8,0.7,1,1.5,0.9c2.8-0.3,5.6-0.5,8.5-0.6c-2.2,1.3-4.3,2.7-6.6,4c1.5,2.7,2.9,5.4,4.3,8.1
			c-0.1,0.1-0.1,0.1-0.2,0.2c-2.8-1.9-5.5-3.8-8.4-5.8c-1.8,2.7-3.5,5.2-5.4,8c0-0.5-0.1-0.8-0.1-1.1c0.1-2.4,0.1-4.7,0.3-7.1
			c0-0.8-0.2-1.2-1-1.4c-2.5-0.7-4.9-1.5-7.4-2.2C54.1,162.9,54.1,162.8,54.1,162.7z"/>
		<path d="M97.3,187.1c-1.2,2.6-2.3,5.2-3.4,7.7c-0.1,0-0.1,0-0.2,0c-0.1-1.2-0.2-2.5-0.3-3.7c-0.1-1.5-0.2-3-0.3-4.5
			c0-0.7-0.3-1.1-1-1.3c-2-0.6-3.9-1.3-6.3-2.1c0.7-0.3,1-0.4,1.4-0.6c1.6-0.5,3.2-1.1,4.8-1.6c0.8-0.2,1-0.7,1-1.5
			c0-2.8,0-5.6,0.2-8.5c0.3,0.5,0.5,1,0.8,1.5c0.9,1.7,1.8,3.5,2.6,5.3c0.5,1.2,1.1,1.3,2.2,0.9c2.1-0.7,4.2-1.3,6.5-1.7
			c-1.5,2-3,3.9-4.6,6c2.8,3.1,5.6,6.2,8.4,9.3c0,0.1-0.1,0.1-0.1,0.2C105,190.7,101.2,188.9,97.3,187.1z"/>
	</g>
</g>
<g id="MRIYA">
	<g>
		<path d="M180.8,239.8v-54.6h16.5l9.9,37.2l9.8-37.2h16.5v54.6h-10.2v-43l-10.8,43h-10.6l-10.8-43v43H180.8z"/>
		<path d="M244.5,239.8v-54.6h23.2c5.8,0,10.1,0.5,12.7,1.5c2.6,1,4.8,2.7,6.3,5.2c1.6,2.5,2.4,5.4,2.4,8.6c0,4.1-1.2,7.5-3.6,10.1
			c-2.4,2.7-6,4.3-10.8,5c2.4,1.4,4.3,2.9,5.9,4.6c1.6,1.7,3.6,4.6,6.3,8.9l6.7,10.6h-13.2l-8-11.9c-2.8-4.2-4.8-6.9-5.8-8
			c-1-1.1-2.1-1.9-3.3-2.3c-1.2-0.4-3-0.6-5.5-0.6h-2.2v22.8H244.5z M255.5,208.3h8.2c5.3,0,8.6-0.2,9.9-0.7
			c1.3-0.4,2.3-1.2,3.1-2.3c0.7-1.1,1.1-2.5,1.1-4.1c0-1.8-0.5-3.3-1.5-4.4c-1-1.1-2.4-1.8-4.2-2.1c-0.9-0.1-3.6-0.2-8-0.2h-8.6
			V208.3z"/>
		<path d="M299.1,239.8v-54.6h11v54.6H299.1z"/>
		<path d="M335,239.8v-23l-20-31.6h12.9l12.8,21.6l12.6-21.6H366L346,216.9v22.9H335z"/>
		<path d="M420.7,239.8h-12l-4.8-12.4h-21.8l-4.5,12.4H366l21.3-54.6h11.7L420.7,239.8z M400.4,218.2l-7.5-20.2l-7.4,20.2H400.4z"/>
	</g>
</g>
</svg>
